<?xml version="1.0" encoding="UTF-8" standalone="no"?>
<!DOCTYPE svg PUBLIC "-//W3C//DTD SVG 1.1//EN"
 "http://www.w3.org/Graphics/SVG/1.1/DTD/svg11.dtd">
<!-- Generated by graphviz version 3.0.0 (20220226.1711)
 -->
<!-- Title: dependencies Pages: 1 -->
<svg width="282pt" height="247pt"
 viewBox="0.00 0.00 282.00 246.80" xmlns="http://www.w3.org/2000/svg" xmlns:xlink="http://www.w3.org/1999/xlink">
<g id="graph0" class="graph" transform="scale(1 1) rotate(0) translate(4 242.8)">
<title>dependencies</title>
<polygon fill="white" stroke="transparent" points="-4,4 -4,-242.8 278,-242.8 278,4 -4,4"/>
<text text-anchor="middle" x="137" y="-8.2" font-family="sans-serif" font-size="14.00">dependencies</text>
<g id="clust1" class="cluster">
<title>cluster_HfsModule</title>
<polygon fill="none" stroke="black" stroke-dasharray="1,5" points="8,-32.8 8,-230.8 266,-230.8 266,-32.8 8,-32.8"/>
</g>
<g id="clust3" class="cluster">
<title>cluster_HfsModule_imports</title>
<polygon fill="none" stroke="black" points="148,-40.8 148,-92.8 258,-92.8 258,-40.8 148,-40.8"/>
</g>
<g id="clust4" class="cluster">
<title>cluster_HfsModule_exports</title>
<polygon fill="none" stroke="black" points="91,-170.8 91,-222.8 189,-222.8 189,-170.8 91,-170.8"/>
</g>
<g id="clust6" class="cluster">
<title>cluster_HfsModule_providers</title>
<polygon fill="none" stroke="black" points="16,-40.8 16,-92.8 140,-92.8 140,-40.8 16,-40.8"/>
</g>
<!-- ClientModule -->
<g id="node1" class="node">
<title>ClientModule</title>
<polygon fill="#8dd3c7" stroke="black" points="249.77,-84.8 246.77,-88.8 225.77,-88.8 222.77,-84.8 156.23,-84.8 156.23,-48.8 249.77,-48.8 249.77,-84.8"/>
<text text-anchor="middle" x="203" y="-62.6" font-family="Times,serif" font-size="14.00">ClientModule</text>
</g>
<!-- HfsModule -->
<g id="node2" class="node">
<title>HfsModule</title>
<polygon fill="#8dd3c7" stroke="black" points="179.77,-149.8 176.77,-153.8 155.77,-153.8 152.77,-149.8 100.23,-149.8 100.23,-113.8 179.77,-113.8 179.77,-149.8"/>
<text text-anchor="middle" x="140" y="-127.6" font-family="Times,serif" font-size="14.00">HfsModule</text>
</g>
<!-- ClientModule&#45;&gt;HfsModule -->
<g id="edge1" class="edge">
<title>ClientModule&#45;&gt;HfsModule</title>
<path fill="none" stroke="black" d="M168,-84.91C168,-84.91 168,-103.79 168,-103.79"/>
<polygon fill="black" stroke="black" points="164.5,-103.79 168,-113.79 171.5,-103.79 164.5,-103.79"/>
</g>
<!-- HfsService  -->
<g id="node3" class="node">
<title>HfsService </title>
<polygon fill="#fb8072" stroke="black" points="180.7,-214.8 99.3,-214.8 99.3,-178.8 180.7,-178.8 180.7,-214.8"/>
<text text-anchor="middle" x="140" y="-192.6" font-family="Times,serif" font-size="14.00">HfsService </text>
</g>
<!-- HfsModule&#45;&gt;HfsService  -->
<g id="edge2" class="edge">
<title>HfsModule&#45;&gt;HfsService </title>
<path fill="none" stroke="black" stroke-dasharray="5,2" d="M140,-149.91C140,-149.91 140,-168.79 140,-168.79"/>
<polygon fill="black" stroke="black" points="136.5,-168.79 140,-178.79 143.5,-168.79 136.5,-168.79"/>
</g>
<!-- HfsService -->
<g id="node4" class="node">
<title>HfsService</title>
<ellipse fill="#fdb462" stroke="black" cx="78" cy="-66.8" rx="53.88" ry="18"/>
<text text-anchor="middle" x="78" y="-62.6" font-family="Times,serif" font-size="14.00">HfsService</text>
</g>
<!-- HfsService&#45;&gt;HfsModule -->
<g id="edge3" class="edge">
<title>HfsService&#45;&gt;HfsModule</title>
<path fill="none" stroke="black" d="M116.03,-79.64C116.03,-79.64 116.03,-103.32 116.03,-103.32"/>
<polygon fill="black" stroke="black" points="112.53,-103.32 116.03,-113.32 119.53,-103.32 112.53,-103.32"/>
</g>
</g>
</svg>
