<?xml version="1.0" encoding="UTF-8" standalone="no"?>
<!DOCTYPE svg PUBLIC "-//W3C//DTD SVG 1.1//EN"
 "http://www.w3.org/Graphics/SVG/1.1/DTD/svg11.dtd">
<!-- Generated by graphviz version 3.0.0 (20220226.1711)
 -->
<!-- Title: dependencies Pages: 1 -->
<svg width="631pt" height="247pt"
 viewBox="0.00 0.00 631.00 246.80" xmlns="http://www.w3.org/2000/svg" xmlns:xlink="http://www.w3.org/1999/xlink">
<g id="graph0" class="graph" transform="scale(1 1) rotate(0) translate(4 242.8)">
<title>dependencies</title>
<polygon fill="white" stroke="transparent" points="-4,4 -4,-242.8 627,-242.8 627,4 -4,4"/>
<text text-anchor="middle" x="311.5" y="-8.2" font-family="sans-serif" font-size="14.00">dependencies</text>
<g id="clust1" class="cluster">
<title>cluster_AccountsModule</title>
<polygon fill="none" stroke="black" stroke-dasharray="1,5" points="8,-32.8 8,-230.8 615,-230.8 615,-32.8 8,-32.8"/>
</g>
<g id="clust4" class="cluster">
<title>cluster_AccountsModule_exports</title>
<polygon fill="none" stroke="black" points="207,-170.8 207,-222.8 337,-222.8 337,-170.8 207,-170.8"/>
</g>
<g id="clust6" class="cluster">
<title>cluster_AccountsModule_providers</title>
<polygon fill="none" stroke="black" points="439,-40.8 439,-92.8 607,-92.8 607,-40.8 439,-40.8"/>
</g>
<g id="clust3" class="cluster">
<title>cluster_AccountsModule_imports</title>
<polygon fill="none" stroke="black" points="16,-40.8 16,-92.8 431,-92.8 431,-40.8 16,-40.8"/>
</g>
<!-- ClientModule -->
<g id="node1" class="node">
<title>ClientModule</title>
<polygon fill="#8dd3c7" stroke="black" points="422.77,-84.8 419.77,-88.8 398.77,-88.8 395.77,-84.8 329.23,-84.8 329.23,-48.8 422.77,-48.8 422.77,-84.8"/>
<text text-anchor="middle" x="376" y="-62.6" font-family="Times,serif" font-size="14.00">ClientModule</text>
</g>
<!-- AccountsModule -->
<g id="node5" class="node">
<title>AccountsModule</title>
<polygon fill="#8dd3c7" stroke="black" points="328.43,-149.8 325.43,-153.8 304.43,-153.8 301.43,-149.8 215.57,-149.8 215.57,-113.8 328.43,-113.8 328.43,-149.8"/>
<text text-anchor="middle" x="272" y="-127.6" font-family="Times,serif" font-size="14.00">AccountsModule</text>
</g>
<!-- ClientModule&#45;&gt;AccountsModule -->
<g id="edge1" class="edge">
<title>ClientModule&#45;&gt;AccountsModule</title>
<path fill="none" stroke="black" d="M329.13,-66.8C323.59,-66.8 319.86,-66.8 319.86,-66.8 319.86,-66.8 319.86,-103.69 319.86,-103.69"/>
<polygon fill="black" stroke="black" points="316.36,-103.69 319.86,-113.69 323.36,-103.69 316.36,-103.69"/>
</g>
<!-- HtsModule -->
<g id="node2" class="node">
<title>HtsModule</title>
<polygon fill="#8dd3c7" stroke="black" points="311.5,-84.8 308.5,-88.8 287.5,-88.8 284.5,-84.8 232.5,-84.8 232.5,-48.8 311.5,-48.8 311.5,-84.8"/>
<text text-anchor="middle" x="272" y="-62.6" font-family="Times,serif" font-size="14.00">HtsModule</text>
</g>
<!-- HtsModule&#45;&gt;AccountsModule -->
<g id="edge2" class="edge">
<title>HtsModule&#45;&gt;AccountsModule</title>
<path fill="none" stroke="black" d="M272,-84.91C272,-84.91 272,-103.79 272,-103.79"/>
<polygon fill="black" stroke="black" points="268.5,-103.79 272,-113.79 275.5,-103.79 268.5,-103.79"/>
</g>
<!-- KeysModule -->
<g id="node3" class="node">
<title>KeysModule</title>
<polygon fill="#8dd3c7" stroke="black" points="214.32,-84.8 211.32,-88.8 190.32,-88.8 187.32,-84.8 125.68,-84.8 125.68,-48.8 214.32,-48.8 214.32,-84.8"/>
<text text-anchor="middle" x="170" y="-62.6" font-family="Times,serif" font-size="14.00">KeysModule</text>
</g>
<!-- KeysModule&#45;&gt;AccountsModule -->
<g id="edge3" class="edge">
<title>KeysModule&#45;&gt;AccountsModule</title>
<path fill="none" stroke="black" d="M214.21,-66.8C220.09,-66.8 224.14,-66.8 224.14,-66.8 224.14,-66.8 224.14,-103.69 224.14,-103.69"/>
<polygon fill="black" stroke="black" points="220.64,-103.69 224.14,-113.69 227.64,-103.69 220.64,-103.69"/>
</g>
<!-- RestModule -->
<g id="node4" class="node">
<title>RestModule</title>
<polygon fill="#8dd3c7" stroke="black" points="108.44,-84.8 105.44,-88.8 84.44,-88.8 81.44,-84.8 23.56,-84.8 23.56,-48.8 108.44,-48.8 108.44,-84.8"/>
<text text-anchor="middle" x="66" y="-62.6" font-family="Times,serif" font-size="14.00">RestModule</text>
</g>
<!-- RestModule&#45;&gt;AccountsModule -->
<g id="edge4" class="edge">
<title>RestModule&#45;&gt;AccountsModule</title>
<path fill="none" stroke="black" d="M66,-84.91C66,-104.14 66,-131.8 66,-131.8 66,-131.8 205.71,-131.8 205.71,-131.8"/>
<polygon fill="black" stroke="black" points="205.71,-135.3 215.71,-131.8 205.71,-128.3 205.71,-135.3"/>
</g>
<!-- AccountsService  -->
<g id="node6" class="node">
<title>AccountsService </title>
<polygon fill="#fb8072" stroke="black" points="329.36,-214.8 214.64,-214.8 214.64,-178.8 329.36,-178.8 329.36,-214.8"/>
<text text-anchor="middle" x="272" y="-192.6" font-family="Times,serif" font-size="14.00">AccountsService </text>
</g>
<!-- AccountsModule&#45;&gt;AccountsService  -->
<g id="edge5" class="edge">
<title>AccountsModule&#45;&gt;AccountsService </title>
<path fill="none" stroke="black" stroke-dasharray="5,2" d="M272,-149.91C272,-149.91 272,-168.79 272,-168.79"/>
<polygon fill="black" stroke="black" points="268.5,-168.79 272,-178.79 275.5,-168.79 268.5,-168.79"/>
</g>
<!-- AccountsService -->
<g id="node7" class="node">
<title>AccountsService</title>
<ellipse fill="#fdb462" stroke="black" cx="523" cy="-66.8" rx="76.43" ry="18"/>
<text text-anchor="middle" x="523" y="-62.6" font-family="Times,serif" font-size="14.00">AccountsService</text>
</g>
<!-- AccountsService&#45;&gt;AccountsModule -->
<g id="edge6" class="edge">
<title>AccountsService&#45;&gt;AccountsModule</title>
<path fill="none" stroke="black" d="M523,-84.91C523,-104.14 523,-131.8 523,-131.8 523,-131.8 338.33,-131.8 338.33,-131.8"/>
<polygon fill="black" stroke="black" points="338.33,-128.3 328.33,-131.8 338.33,-135.3 338.33,-128.3"/>
</g>
</g>
</svg>
