<?xml version="1.0" encoding="UTF-8" standalone="no"?>
<!DOCTYPE svg PUBLIC "-//W3C//DTD SVG 1.1//EN"
 "http://www.w3.org/Graphics/SVG/1.1/DTD/svg11.dtd">
<!-- Generated by graphviz version 3.0.0 (20220226.1711)
 -->
<!-- Title: dependencies Pages: 1 -->
<svg width="837pt" height="247pt"
 viewBox="0.00 0.00 837.00 246.80" xmlns="http://www.w3.org/2000/svg" xmlns:xlink="http://www.w3.org/1999/xlink">
<g id="graph0" class="graph" transform="scale(1 1) rotate(0) translate(4 242.8)">
<title>dependencies</title>
<polygon fill="white" stroke="transparent" points="-4,4 -4,-242.8 833,-242.8 833,4 -4,4"/>
<text text-anchor="middle" x="414.5" y="-8.2" font-family="sans-serif" font-size="14.00">dependencies</text>
<g id="clust1" class="cluster">
<title>cluster_AccountsModule</title>
<polygon fill="none" stroke="black" stroke-dasharray="1,5" points="8,-32.8 8,-230.8 821,-230.8 821,-32.8 8,-32.8"/>
</g>
<g id="clust4" class="cluster">
<title>cluster_AccountsModule_exports</title>
<polygon fill="none" stroke="black" points="187,-170.8 187,-222.8 475,-222.8 475,-170.8 187,-170.8"/>
</g>
<g id="clust6" class="cluster">
<title>cluster_AccountsModule_providers</title>
<polygon fill="none" stroke="black" points="439,-40.8 439,-92.8 813,-92.8 813,-40.8 439,-40.8"/>
</g>
<g id="clust3" class="cluster">
<title>cluster_AccountsModule_imports</title>
<polygon fill="none" stroke="black" points="16,-40.8 16,-92.8 431,-92.8 431,-40.8 16,-40.8"/>
</g>
<!-- ClientModule -->
<g id="node1" class="node">
<title>ClientModule</title>
<polygon fill="#8dd3c7" stroke="black" points="422.77,-84.8 419.77,-88.8 398.77,-88.8 395.77,-84.8 329.23,-84.8 329.23,-48.8 422.77,-48.8 422.77,-84.8"/>
<text text-anchor="middle" x="376" y="-62.6" font-family="Times,serif" font-size="14.00">ClientModule</text>
</g>
<!-- AccountsModule -->
<g id="node5" class="node">
<title>AccountsModule</title>
<polygon fill="#8dd3c7" stroke="black" points="380.43,-149.8 377.43,-153.8 356.43,-153.8 353.43,-149.8 267.57,-149.8 267.57,-113.8 380.43,-113.8 380.43,-149.8"/>
<text text-anchor="middle" x="324" y="-127.6" font-family="Times,serif" font-size="14.00">AccountsModule</text>
</g>
<!-- ClientModule&#45;&gt;AccountsModule -->
<g id="edge1" class="edge">
<title>ClientModule&#45;&gt;AccountsModule</title>
<path fill="none" stroke="black" d="M354.66,-84.91C354.66,-84.91 354.66,-103.79 354.66,-103.79"/>
<polygon fill="black" stroke="black" points="351.16,-103.79 354.66,-113.79 358.16,-103.79 351.16,-103.79"/>
</g>
<!-- HtsModule -->
<g id="node2" class="node">
<title>HtsModule</title>
<polygon fill="#8dd3c7" stroke="black" points="311.5,-84.8 308.5,-88.8 287.5,-88.8 284.5,-84.8 232.5,-84.8 232.5,-48.8 311.5,-48.8 311.5,-84.8"/>
<text text-anchor="middle" x="272" y="-62.6" font-family="Times,serif" font-size="14.00">HtsModule</text>
</g>
<!-- HtsModule&#45;&gt;AccountsModule -->
<g id="edge2" class="edge">
<title>HtsModule&#45;&gt;AccountsModule</title>
<path fill="none" stroke="black" d="M289.64,-84.91C289.64,-84.91 289.64,-103.79 289.64,-103.79"/>
<polygon fill="black" stroke="black" points="286.14,-103.79 289.64,-113.79 293.14,-103.79 286.14,-103.79"/>
</g>
<!-- KeysModule -->
<g id="node3" class="node">
<title>KeysModule</title>
<polygon fill="#8dd3c7" stroke="black" points="214.32,-84.8 211.32,-88.8 190.32,-88.8 187.32,-84.8 125.68,-84.8 125.68,-48.8 214.32,-48.8 214.32,-84.8"/>
<text text-anchor="middle" x="170" y="-62.6" font-family="Times,serif" font-size="14.00">KeysModule</text>
</g>
<!-- KeysModule&#45;&gt;AccountsModule -->
<g id="edge3" class="edge">
<title>KeysModule&#45;&gt;AccountsModule</title>
<path fill="none" stroke="black" d="M204.49,-84.82C204.49,-102.17 204.49,-125.8 204.49,-125.8 204.49,-125.8 257.75,-125.8 257.75,-125.8"/>
<polygon fill="black" stroke="black" points="257.75,-129.3 267.75,-125.8 257.75,-122.3 257.75,-129.3"/>
</g>
<!-- RestModule -->
<g id="node4" class="node">
<title>RestModule</title>
<polygon fill="#8dd3c7" stroke="black" points="108.44,-84.8 105.44,-88.8 84.44,-88.8 81.44,-84.8 23.56,-84.8 23.56,-48.8 108.44,-48.8 108.44,-84.8"/>
<text text-anchor="middle" x="66" y="-62.6" font-family="Times,serif" font-size="14.00">RestModule</text>
</g>
<!-- RestModule&#45;&gt;AccountsModule -->
<g id="edge4" class="edge">
<title>RestModule&#45;&gt;AccountsModule</title>
<path fill="none" stroke="black" d="M66,-85.08C66,-106.12 66,-137.8 66,-137.8 66,-137.8 257.7,-137.8 257.7,-137.8"/>
<polygon fill="black" stroke="black" points="257.7,-141.3 267.7,-137.8 257.7,-134.3 257.7,-141.3"/>
</g>
<!-- AccountsRestService  -->
<g id="node6" class="node">
<title>AccountsRestService </title>
<polygon fill="#fb8072" stroke="black" points="466.75,-214.8 327.25,-214.8 327.25,-178.8 466.75,-178.8 466.75,-214.8"/>
<text text-anchor="middle" x="397" y="-192.6" font-family="Times,serif" font-size="14.00">AccountsRestService </text>
</g>
<!-- AccountsModule&#45;&gt;AccountsRestService  -->
<g id="edge5" class="edge">
<title>AccountsModule&#45;&gt;AccountsRestService </title>
<path fill="none" stroke="black" stroke-dasharray="5,2" d="M353.8,-149.91C353.8,-149.91 353.8,-168.79 353.8,-168.79"/>
<polygon fill="black" stroke="black" points="350.3,-168.79 353.8,-178.79 357.3,-168.79 350.3,-168.79"/>
</g>
<!-- AccountsService  -->
<g id="node7" class="node">
<title>AccountsService </title>
<polygon fill="#fb8072" stroke="black" points="309.36,-214.8 194.64,-214.8 194.64,-178.8 309.36,-178.8 309.36,-214.8"/>
<text text-anchor="middle" x="252" y="-192.6" font-family="Times,serif" font-size="14.00">AccountsService </text>
</g>
<!-- AccountsModule&#45;&gt;AccountsService  -->
<g id="edge6" class="edge">
<title>AccountsModule&#45;&gt;AccountsService </title>
<path fill="none" stroke="black" stroke-dasharray="5,2" d="M288.48,-149.91C288.48,-149.91 288.48,-168.79 288.48,-168.79"/>
<polygon fill="black" stroke="black" points="284.98,-168.79 288.48,-178.79 291.98,-168.79 284.98,-168.79"/>
</g>
<!-- AccountsRestService -->
<g id="node8" class="node">
<title>AccountsRestService</title>
<ellipse fill="#fdb462" stroke="black" cx="711" cy="-66.8" rx="93.77" ry="18"/>
<text text-anchor="middle" x="711" y="-62.6" font-family="Times,serif" font-size="14.00">AccountsRestService</text>
</g>
<!-- AccountsRestService&#45;&gt;AccountsModule -->
<g id="edge7" class="edge">
<title>AccountsRestService&#45;&gt;AccountsModule</title>
<path fill="none" stroke="black" d="M711,-85.08C711,-106.12 711,-137.8 711,-137.8 711,-137.8 390.27,-137.8 390.27,-137.8"/>
<polygon fill="black" stroke="black" points="390.27,-134.3 380.27,-137.8 390.27,-141.3 390.27,-134.3"/>
</g>
<!-- AccountsService -->
<g id="node9" class="node">
<title>AccountsService</title>
<ellipse fill="#fdb462" stroke="black" cx="523" cy="-66.8" rx="76.43" ry="18"/>
<text text-anchor="middle" x="523" y="-62.6" font-family="Times,serif" font-size="14.00">AccountsService</text>
</g>
<!-- AccountsService&#45;&gt;AccountsModule -->
<g id="edge8" class="edge">
<title>AccountsService&#45;&gt;AccountsModule</title>
<path fill="none" stroke="black" d="M456.58,-75.76C456.58,-92.27 456.58,-125.8 456.58,-125.8 456.58,-125.8 390.23,-125.8 390.23,-125.8"/>
<polygon fill="black" stroke="black" points="390.23,-122.3 380.23,-125.8 390.23,-129.3 390.23,-122.3"/>
</g>
</g>
</svg>
