<?xml version="1.0" encoding="UTF-8" standalone="no"?>
<!DOCTYPE svg PUBLIC "-//W3C//DTD SVG 1.1//EN"
 "http://www.w3.org/Graphics/SVG/1.1/DTD/svg11.dtd">
<!-- Generated by graphviz version 3.0.0 (20220226.1711)
 -->
<!-- Title: dependencies Pages: 1 -->
<svg width="542pt" height="247pt"
 viewBox="0.00 0.00 542.00 246.80" xmlns="http://www.w3.org/2000/svg" xmlns:xlink="http://www.w3.org/1999/xlink">
<g id="graph0" class="graph" transform="scale(1 1) rotate(0) translate(4 242.8)">
<title>dependencies</title>
<polygon fill="white" stroke="transparent" points="-4,4 -4,-242.8 538,-242.8 538,4 -4,4"/>
<text text-anchor="middle" x="267" y="-8.2" font-family="sans-serif" font-size="14.00">dependencies</text>
<g id="clust1" class="cluster">
<title>cluster_HtsModule</title>
<polygon fill="none" stroke="black" stroke-dasharray="1,5" points="8,-32.8 8,-230.8 526,-230.8 526,-32.8 8,-32.8"/>
</g>
<g id="clust4" class="cluster">
<title>cluster_HtsModule_exports</title>
<polygon fill="none" stroke="black" points="248,-170.8 248,-222.8 468,-222.8 468,-170.8 248,-170.8"/>
</g>
<g id="clust3" class="cluster">
<title>cluster_HtsModule_imports</title>
<polygon fill="none" stroke="black" points="306,-40.8 306,-92.8 518,-92.8 518,-40.8 306,-40.8"/>
</g>
<g id="clust6" class="cluster">
<title>cluster_HtsModule_providers</title>
<polygon fill="none" stroke="black" points="16,-40.8 16,-92.8 298,-92.8 298,-40.8 16,-40.8"/>
</g>
<!-- ClientModule -->
<g id="node1" class="node">
<title>ClientModule</title>
<polygon fill="#8dd3c7" stroke="black" points="509.77,-84.8 506.77,-88.8 485.77,-88.8 482.77,-84.8 416.23,-84.8 416.23,-48.8 509.77,-48.8 509.77,-84.8"/>
<text text-anchor="middle" x="463" y="-62.6" font-family="Times,serif" font-size="14.00">ClientModule</text>
</g>
<!-- HtsModule -->
<g id="node3" class="node">
<title>HtsModule</title>
<polygon fill="#8dd3c7" stroke="black" points="395.5,-149.8 392.5,-153.8 371.5,-153.8 368.5,-149.8 316.5,-149.8 316.5,-113.8 395.5,-113.8 395.5,-149.8"/>
<text text-anchor="middle" x="356" y="-127.6" font-family="Times,serif" font-size="14.00">HtsModule</text>
</g>
<!-- ClientModule&#45;&gt;HtsModule -->
<g id="edge1" class="edge">
<title>ClientModule&#45;&gt;HtsModule</title>
<path fill="none" stroke="black" d="M445.31,-85.08C445.31,-106.12 445.31,-137.8 445.31,-137.8 445.31,-137.8 405.69,-137.8 405.69,-137.8"/>
<polygon fill="black" stroke="black" points="405.69,-134.3 395.69,-137.8 405.69,-141.3 405.69,-134.3"/>
</g>
<!-- ClientModule&#45;&gt;HtsModule -->
<g id="edge2" class="edge">
<title>ClientModule&#45;&gt;HtsModule</title>
<path fill="none" stroke="black" d="M430.71,-84.82C430.71,-102.17 430.71,-125.8 430.71,-125.8 430.71,-125.8 405.54,-125.8 405.54,-125.8"/>
<polygon fill="black" stroke="black" points="405.54,-122.3 395.54,-125.8 405.54,-129.3 405.54,-122.3"/>
</g>
<!-- RestModule -->
<g id="node2" class="node">
<title>RestModule</title>
<polygon fill="#8dd3c7" stroke="black" points="398.44,-84.8 395.44,-88.8 374.44,-88.8 371.44,-84.8 313.56,-84.8 313.56,-48.8 398.44,-48.8 398.44,-84.8"/>
<text text-anchor="middle" x="356" y="-62.6" font-family="Times,serif" font-size="14.00">RestModule</text>
</g>
<!-- RestModule&#45;&gt;HtsModule -->
<g id="edge3" class="edge">
<title>RestModule&#45;&gt;HtsModule</title>
<path fill="none" stroke="black" d="M356,-84.91C356,-84.91 356,-103.79 356,-103.79"/>
<polygon fill="black" stroke="black" points="352.5,-103.79 356,-113.79 359.5,-103.79 352.5,-103.79"/>
</g>
<!-- HtsRestService  -->
<g id="node4" class="node">
<title>HtsRestService </title>
<polygon fill="#fb8072" stroke="black" points="459.82,-214.8 354.18,-214.8 354.18,-178.8 459.82,-178.8 459.82,-214.8"/>
<text text-anchor="middle" x="407" y="-192.6" font-family="Times,serif" font-size="14.00">HtsRestService </text>
</g>
<!-- HtsModule&#45;&gt;HtsRestService  -->
<g id="edge4" class="edge">
<title>HtsModule&#45;&gt;HtsRestService </title>
<path fill="none" stroke="black" stroke-dasharray="5,2" d="M374.8,-149.91C374.8,-149.91 374.8,-168.79 374.8,-168.79"/>
<polygon fill="black" stroke="black" points="371.3,-168.79 374.8,-178.79 378.3,-168.79 371.3,-168.79"/>
</g>
<!-- HtsService  -->
<g id="node5" class="node">
<title>HtsService </title>
<polygon fill="#fb8072" stroke="black" points="336.43,-214.8 255.57,-214.8 255.57,-178.8 336.43,-178.8 336.43,-214.8"/>
<text text-anchor="middle" x="296" y="-192.6" font-family="Times,serif" font-size="14.00">HtsService </text>
</g>
<!-- HtsModule&#45;&gt;HtsService  -->
<g id="edge5" class="edge">
<title>HtsModule&#45;&gt;HtsService </title>
<path fill="none" stroke="black" stroke-dasharray="5,2" d="M326.48,-149.91C326.48,-149.91 326.48,-168.79 326.48,-168.79"/>
<polygon fill="black" stroke="black" points="322.98,-168.79 326.48,-178.79 329.98,-168.79 322.98,-168.79"/>
</g>
<!-- HtsRestService -->
<g id="node6" class="node">
<title>HtsRestService</title>
<ellipse fill="#fdb462" stroke="black" cx="219" cy="-66.8" rx="70.65" ry="18"/>
<text text-anchor="middle" x="219" y="-62.6" font-family="Times,serif" font-size="14.00">HtsRestService</text>
</g>
<!-- HtsRestService&#45;&gt;HtsModule -->
<g id="edge6" class="edge">
<title>HtsRestService&#45;&gt;HtsModule</title>
<path fill="none" stroke="black" d="M272.56,-78.74C272.56,-95.98 272.56,-125.8 272.56,-125.8 272.56,-125.8 306.23,-125.8 306.23,-125.8"/>
<polygon fill="black" stroke="black" points="306.23,-129.3 316.23,-125.8 306.23,-122.3 306.23,-129.3"/>
</g>
<!-- HtsService -->
<g id="node7" class="node">
<title>HtsService</title>
<ellipse fill="#fdb462" stroke="black" cx="77" cy="-66.8" rx="53.32" ry="18"/>
<text text-anchor="middle" x="77" y="-62.6" font-family="Times,serif" font-size="14.00">HtsService</text>
</g>
<!-- HtsService&#45;&gt;HtsModule -->
<g id="edge7" class="edge">
<title>HtsService&#45;&gt;HtsModule</title>
<path fill="none" stroke="black" d="M77,-85.08C77,-106.12 77,-137.8 77,-137.8 77,-137.8 306.32,-137.8 306.32,-137.8"/>
<polygon fill="black" stroke="black" points="306.32,-141.3 316.32,-137.8 306.32,-134.3 306.32,-141.3"/>
</g>
</g>
</svg>
