<?xml version="1.0" encoding="UTF-8" standalone="no"?>
<!DOCTYPE svg PUBLIC "-//W3C//DTD SVG 1.1//EN"
 "http://www.w3.org/Graphics/SVG/1.1/DTD/svg11.dtd">
<!-- Generated by graphviz version 3.0.0 (20220226.1711)
 -->
<!-- Title: dependencies Pages: 1 -->
<svg width="686pt" height="247pt"
 viewBox="0.00 0.00 686.00 246.80" xmlns="http://www.w3.org/2000/svg" xmlns:xlink="http://www.w3.org/1999/xlink">
<g id="graph0" class="graph" transform="scale(1 1) rotate(0) translate(4 242.8)">
<title>dependencies</title>
<polygon fill="white" stroke="transparent" points="-4,4 -4,-242.8 682,-242.8 682,4 -4,4"/>
<text text-anchor="middle" x="339" y="-8.2" font-family="sans-serif" font-size="14.00">dependencies</text>
<g id="clust1" class="cluster">
<title>cluster_TransactionsModule</title>
<polygon fill="none" stroke="black" stroke-dasharray="1,5" points="8,-32.8 8,-230.8 670,-230.8 670,-32.8 8,-32.8"/>
</g>
<g id="clust3" class="cluster">
<title>cluster_TransactionsModule_imports</title>
<polygon fill="none" stroke="black" points="450,-40.8 450,-92.8 662,-92.8 662,-40.8 450,-40.8"/>
</g>
<g id="clust4" class="cluster">
<title>cluster_TransactionsModule_exports</title>
<polygon fill="none" stroke="black" points="213,-170.8 213,-222.8 538,-222.8 538,-170.8 213,-170.8"/>
</g>
<g id="clust6" class="cluster">
<title>cluster_TransactionsModule_providers</title>
<polygon fill="none" stroke="black" points="16,-40.8 16,-92.8 442,-92.8 442,-40.8 16,-40.8"/>
</g>
<!-- ClientModule -->
<g id="node1" class="node">
<title>ClientModule</title>
<polygon fill="#8dd3c7" stroke="black" points="653.77,-84.8 650.77,-88.8 629.77,-88.8 626.77,-84.8 560.23,-84.8 560.23,-48.8 653.77,-48.8 653.77,-84.8"/>
<text text-anchor="middle" x="607" y="-62.6" font-family="Times,serif" font-size="14.00">ClientModule</text>
</g>
<!-- TransactionsModule -->
<g id="node3" class="node">
<title>TransactionsModule</title>
<polygon fill="#8dd3c7" stroke="black" points="434.58,-149.8 431.58,-153.8 410.58,-153.8 407.58,-149.8 303.42,-149.8 303.42,-113.8 434.58,-113.8 434.58,-149.8"/>
<text text-anchor="middle" x="369" y="-127.6" font-family="Times,serif" font-size="14.00">TransactionsModule</text>
</g>
<!-- ClientModule&#45;&gt;TransactionsModule -->
<g id="edge1" class="edge">
<title>ClientModule&#45;&gt;TransactionsModule</title>
<path fill="none" stroke="black" d="M607,-85.08C607,-106.12 607,-137.8 607,-137.8 607,-137.8 444.66,-137.8 444.66,-137.8"/>
<polygon fill="black" stroke="black" points="444.66,-134.3 434.66,-137.8 444.66,-141.3 444.66,-134.3"/>
</g>
<!-- RestModule -->
<g id="node2" class="node">
<title>RestModule</title>
<polygon fill="#8dd3c7" stroke="black" points="542.44,-84.8 539.44,-88.8 518.44,-88.8 515.44,-84.8 457.56,-84.8 457.56,-48.8 542.44,-48.8 542.44,-84.8"/>
<text text-anchor="middle" x="500" y="-62.6" font-family="Times,serif" font-size="14.00">RestModule</text>
</g>
<!-- RestModule&#45;&gt;TransactionsModule -->
<g id="edge2" class="edge">
<title>RestModule&#45;&gt;TransactionsModule</title>
<path fill="none" stroke="black" d="M493.86,-84.82C493.86,-102.17 493.86,-125.8 493.86,-125.8 493.86,-125.8 444.72,-125.8 444.72,-125.8"/>
<polygon fill="black" stroke="black" points="444.72,-122.3 434.72,-125.8 444.72,-129.3 444.72,-122.3"/>
</g>
<!-- TransactionsRestService  -->
<g id="node4" class="node">
<title>TransactionsRestService </title>
<polygon fill="#fb8072" stroke="black" points="529.9,-214.8 372.1,-214.8 372.1,-178.8 529.9,-178.8 529.9,-214.8"/>
<text text-anchor="middle" x="451" y="-192.6" font-family="Times,serif" font-size="14.00">TransactionsRestService </text>
</g>
<!-- TransactionsModule&#45;&gt;TransactionsRestService  -->
<g id="edge3" class="edge">
<title>TransactionsModule&#45;&gt;TransactionsRestService </title>
<path fill="none" stroke="black" stroke-dasharray="5,2" d="M403.3,-149.91C403.3,-149.91 403.3,-168.79 403.3,-168.79"/>
<polygon fill="black" stroke="black" points="399.8,-168.79 403.3,-178.79 406.8,-168.79 399.8,-168.79"/>
</g>
<!-- TransactionsService  -->
<g id="node5" class="node">
<title>TransactionsService </title>
<polygon fill="#fb8072" stroke="black" points="354.51,-214.8 221.49,-214.8 221.49,-178.8 354.51,-178.8 354.51,-214.8"/>
<text text-anchor="middle" x="288" y="-192.6" font-family="Times,serif" font-size="14.00">TransactionsService </text>
</g>
<!-- TransactionsModule&#45;&gt;TransactionsService  -->
<g id="edge4" class="edge">
<title>TransactionsModule&#45;&gt;TransactionsService </title>
<path fill="none" stroke="black" stroke-dasharray="5,2" d="M328.98,-149.91C328.98,-149.91 328.98,-168.79 328.98,-168.79"/>
<polygon fill="black" stroke="black" points="325.48,-168.79 328.98,-178.79 332.48,-168.79 325.48,-168.79"/>
</g>
<!-- TransactionsRestService -->
<g id="node6" class="node">
<title>TransactionsRestService</title>
<ellipse fill="#fdb462" stroke="black" cx="327" cy="-66.8" rx="106.51" ry="18"/>
<text text-anchor="middle" x="327" y="-62.6" font-family="Times,serif" font-size="14.00">TransactionsRestService</text>
</g>
<!-- TransactionsRestService&#45;&gt;TransactionsModule -->
<g id="edge5" class="edge">
<title>TransactionsRestService&#45;&gt;TransactionsModule</title>
<path fill="none" stroke="black" d="M368.48,-83.54C368.48,-83.54 368.48,-103.52 368.48,-103.52"/>
<polygon fill="black" stroke="black" points="364.98,-103.52 368.48,-113.52 371.98,-103.52 364.98,-103.52"/>
</g>
<!-- TransactionsService -->
<g id="node7" class="node">
<title>TransactionsService</title>
<ellipse fill="#fdb462" stroke="black" cx="113" cy="-66.8" rx="89.17" ry="18"/>
<text text-anchor="middle" x="113" y="-62.6" font-family="Times,serif" font-size="14.00">TransactionsService</text>
</g>
<!-- TransactionsService&#45;&gt;TransactionsModule -->
<g id="edge6" class="edge">
<title>TransactionsService&#45;&gt;TransactionsModule</title>
<path fill="none" stroke="black" d="M113,-84.91C113,-104.14 113,-131.8 113,-131.8 113,-131.8 293.41,-131.8 293.41,-131.8"/>
<polygon fill="black" stroke="black" points="293.41,-135.3 303.41,-131.8 293.41,-128.3 293.41,-135.3"/>
</g>
</g>
</svg>
