<?xml version="1.0" encoding="UTF-8" standalone="no"?>
<!DOCTYPE svg PUBLIC "-//W3C//DTD SVG 1.1//EN"
 "http://www.w3.org/Graphics/SVG/1.1/DTD/svg11.dtd">
<!-- Generated by graphviz version 3.0.0 (20220226.1711)
 -->
<!-- Title: dependencies Pages: 1 -->
<svg width="548pt" height="247pt"
 viewBox="0.00 0.00 548.00 246.80" xmlns="http://www.w3.org/2000/svg" xmlns:xlink="http://www.w3.org/1999/xlink">
<g id="graph0" class="graph" transform="scale(1 1) rotate(0) translate(4 242.8)">
<title>dependencies</title>
<polygon fill="white" stroke="transparent" points="-4,4 -4,-242.8 544,-242.8 544,4 -4,4"/>
<text text-anchor="middle" x="270" y="-8.2" font-family="sans-serif" font-size="14.00">dependencies</text>
<g id="clust1" class="cluster">
<title>cluster_HcsModule</title>
<polygon fill="none" stroke="black" stroke-dasharray="1,5" points="8,-32.8 8,-230.8 532,-230.8 532,-32.8 8,-32.8"/>
</g>
<g id="clust6" class="cluster">
<title>cluster_HcsModule_providers</title>
<polygon fill="none" stroke="black" points="236,-40.8 236,-92.8 524,-92.8 524,-40.8 236,-40.8"/>
</g>
<g id="clust3" class="cluster">
<title>cluster_HcsModule_imports</title>
<polygon fill="none" stroke="black" points="16,-40.8 16,-92.8 228,-92.8 228,-40.8 16,-40.8"/>
</g>
<g id="clust4" class="cluster">
<title>cluster_HcsModule_exports</title>
<polygon fill="none" stroke="black" points="129,-170.8 129,-222.8 355,-222.8 355,-170.8 129,-170.8"/>
</g>
<!-- ClientModule -->
<g id="node1" class="node">
<title>ClientModule</title>
<polygon fill="#8dd3c7" stroke="black" points="219.77,-84.8 216.77,-88.8 195.77,-88.8 192.77,-84.8 126.23,-84.8 126.23,-48.8 219.77,-48.8 219.77,-84.8"/>
<text text-anchor="middle" x="173" y="-62.6" font-family="Times,serif" font-size="14.00">ClientModule</text>
</g>
<!-- HcsModule -->
<g id="node3" class="node">
<title>HcsModule</title>
<polygon fill="#8dd3c7" stroke="black" points="276.82,-149.8 273.82,-153.8 252.82,-153.8 249.82,-149.8 195.18,-149.8 195.18,-113.8 276.82,-113.8 276.82,-149.8"/>
<text text-anchor="middle" x="236" y="-127.6" font-family="Times,serif" font-size="14.00">HcsModule</text>
</g>
<!-- ClientModule&#45;&gt;HcsModule -->
<g id="edge1" class="edge">
<title>ClientModule&#45;&gt;HcsModule</title>
<path fill="none" stroke="black" d="M207.61,-84.91C207.61,-84.91 207.61,-103.79 207.61,-103.79"/>
<polygon fill="black" stroke="black" points="204.11,-103.79 207.61,-113.79 211.11,-103.79 204.11,-103.79"/>
</g>
<!-- RestModule -->
<g id="node2" class="node">
<title>RestModule</title>
<polygon fill="#8dd3c7" stroke="black" points="108.44,-84.8 105.44,-88.8 84.44,-88.8 81.44,-84.8 23.56,-84.8 23.56,-48.8 108.44,-48.8 108.44,-84.8"/>
<text text-anchor="middle" x="66" y="-62.6" font-family="Times,serif" font-size="14.00">RestModule</text>
</g>
<!-- RestModule&#45;&gt;HcsModule -->
<g id="edge2" class="edge">
<title>RestModule&#45;&gt;HcsModule</title>
<path fill="none" stroke="black" d="M66,-84.91C66,-104.14 66,-131.8 66,-131.8 66,-131.8 185.28,-131.8 185.28,-131.8"/>
<polygon fill="black" stroke="black" points="185.28,-135.3 195.28,-131.8 185.28,-128.3 185.28,-135.3"/>
</g>
<!-- HcsRestService  -->
<g id="node4" class="node">
<title>HcsRestService </title>
<polygon fill="#fb8072" stroke="black" points="347.14,-214.8 238.86,-214.8 238.86,-178.8 347.14,-178.8 347.14,-214.8"/>
<text text-anchor="middle" x="293" y="-192.6" font-family="Times,serif" font-size="14.00">HcsRestService </text>
</g>
<!-- HcsModule&#45;&gt;HcsRestService  -->
<g id="edge3" class="edge">
<title>HcsModule&#45;&gt;HcsRestService </title>
<path fill="none" stroke="black" stroke-dasharray="5,2" d="M257.8,-149.91C257.8,-149.91 257.8,-168.79 257.8,-168.79"/>
<polygon fill="black" stroke="black" points="254.3,-168.79 257.8,-178.79 261.3,-168.79 254.3,-168.79"/>
</g>
<!-- HcsService  -->
<g id="node5" class="node">
<title>HcsService </title>
<polygon fill="#fb8072" stroke="black" points="220.75,-214.8 137.25,-214.8 137.25,-178.8 220.75,-178.8 220.75,-214.8"/>
<text text-anchor="middle" x="179" y="-192.6" font-family="Times,serif" font-size="14.00">HcsService </text>
</g>
<!-- HcsModule&#45;&gt;HcsService  -->
<g id="edge4" class="edge">
<title>HcsModule&#45;&gt;HcsService </title>
<path fill="none" stroke="black" stroke-dasharray="5,2" d="M207.98,-149.91C207.98,-149.91 207.98,-168.79 207.98,-168.79"/>
<polygon fill="black" stroke="black" points="204.48,-168.79 207.98,-178.79 211.48,-168.79 204.48,-168.79"/>
</g>
<!-- HcsRestService -->
<g id="node6" class="node">
<title>HcsRestService</title>
<ellipse fill="#fdb462" stroke="black" cx="444" cy="-66.8" rx="72.36" ry="18"/>
<text text-anchor="middle" x="444" y="-62.6" font-family="Times,serif" font-size="14.00">HcsRestService</text>
</g>
<!-- HcsRestService&#45;&gt;HcsModule -->
<g id="edge5" class="edge">
<title>HcsRestService&#45;&gt;HcsModule</title>
<path fill="none" stroke="black" d="M444,-84.91C444,-104.14 444,-131.8 444,-131.8 444,-131.8 287.09,-131.8 287.09,-131.8"/>
<polygon fill="black" stroke="black" points="287.09,-128.3 277.09,-131.8 287.09,-135.3 287.09,-128.3"/>
</g>
<!-- HcsService -->
<g id="node7" class="node">
<title>HcsService</title>
<ellipse fill="#fdb462" stroke="black" cx="299" cy="-66.8" rx="55.02" ry="18"/>
<text text-anchor="middle" x="299" y="-62.6" font-family="Times,serif" font-size="14.00">HcsService</text>
</g>
<!-- HcsService&#45;&gt;HcsModule -->
<g id="edge6" class="edge">
<title>HcsService&#45;&gt;HcsModule</title>
<path fill="none" stroke="black" d="M260.33,-79.64C260.33,-79.64 260.33,-103.32 260.33,-103.32"/>
<polygon fill="black" stroke="black" points="256.83,-103.32 260.33,-113.32 263.83,-103.32 256.83,-103.32"/>
</g>
</g>
</svg>
