<?xml version="1.0" encoding="UTF-8" standalone="no"?>
<!DOCTYPE svg PUBLIC "-//W3C//DTD SVG 1.1//EN"
 "http://www.w3.org/Graphics/SVG/1.1/DTD/svg11.dtd">
<!-- Generated by graphviz version 3.0.0 (20220226.1711)
 -->
<!-- Title: dependencies Pages: 1 -->
<svg width="546pt" height="247pt"
 viewBox="0.00 0.00 546.00 246.80" xmlns="http://www.w3.org/2000/svg" xmlns:xlink="http://www.w3.org/1999/xlink">
<g id="graph0" class="graph" transform="scale(1 1) rotate(0) translate(4 242.8)">
<title>dependencies</title>
<polygon fill="white" stroke="transparent" points="-4,4 -4,-242.8 542,-242.8 542,4 -4,4"/>
<text text-anchor="middle" x="269" y="-8.2" font-family="sans-serif" font-size="14.00">dependencies</text>
<g id="clust7" class="cluster">
<title>cluster_HcsModule</title>
<polygon fill="none" stroke="black" stroke-dasharray="1,5" points="8,-32.8 8,-230.8 370,-230.8 370,-32.8 8,-32.8"/>
</g>
<g id="clust9" class="cluster">
<title>cluster_HcsModule_imports</title>
<polygon fill="none" stroke="black" points="150,-40.8 150,-92.8 362,-92.8 362,-40.8 150,-40.8"/>
</g>
<g id="clust10" class="cluster">
<title>cluster_HcsModule_exports</title>
<polygon fill="none" stroke="black" points="150,-170.8 150,-222.8 250,-222.8 250,-170.8 150,-170.8"/>
</g>
<g id="clust12" class="cluster">
<title>cluster_HcsModule_providers</title>
<polygon fill="none" stroke="black" points="16,-40.8 16,-92.8 142,-92.8 142,-40.8 16,-40.8"/>
</g>
<g id="clust19" class="cluster">
<title>cluster_KeysModule</title>
<polygon fill="none" stroke="black" stroke-dasharray="1,5" points="378,-32.8 378,-230.8 530,-230.8 530,-32.8 378,-32.8"/>
</g>
<g id="clust22" class="cluster">
<title>cluster_KeysModule_exports</title>
<polygon fill="none" stroke="black" points="401,-170.8 401,-222.8 507,-222.8 507,-170.8 401,-170.8"/>
</g>
<g id="clust24" class="cluster">
<title>cluster_KeysModule_providers</title>
<polygon fill="none" stroke="black" points="386,-40.8 386,-92.8 522,-92.8 522,-40.8 386,-40.8"/>
</g>
<!-- ClientModule -->
<g id="node1" class="node">
<title>ClientModule</title>
<polygon fill="#8dd3c7" stroke="black" points="353.77,-84.8 350.77,-88.8 329.77,-88.8 326.77,-84.8 260.23,-84.8 260.23,-48.8 353.77,-48.8 353.77,-84.8"/>
<text text-anchor="middle" x="307" y="-62.6" font-family="Times,serif" font-size="14.00">ClientModule</text>
</g>
<!-- HcsModule -->
<g id="node3" class="node">
<title>HcsModule</title>
<polygon fill="#8dd3c7" stroke="black" points="240.82,-149.8 237.82,-153.8 216.82,-153.8 213.82,-149.8 159.18,-149.8 159.18,-113.8 240.82,-113.8 240.82,-149.8"/>
<text text-anchor="middle" x="200" y="-127.6" font-family="Times,serif" font-size="14.00">HcsModule</text>
</g>
<!-- ClientModule&#45;&gt;HcsModule -->
<g id="edge1" class="edge">
<title>ClientModule&#45;&gt;HcsModule</title>
<path fill="none" stroke="black" d="M307,-84.91C307,-104.14 307,-131.8 307,-131.8 307,-131.8 250.76,-131.8 250.76,-131.8"/>
<polygon fill="black" stroke="black" points="250.76,-128.3 240.76,-131.8 250.76,-135.3 250.76,-128.3"/>
</g>
<!-- RestModule -->
<g id="node2" class="node">
<title>RestModule</title>
<polygon fill="#8dd3c7" stroke="black" points="242.44,-84.8 239.44,-88.8 218.44,-88.8 215.44,-84.8 157.56,-84.8 157.56,-48.8 242.44,-48.8 242.44,-84.8"/>
<text text-anchor="middle" x="200" y="-62.6" font-family="Times,serif" font-size="14.00">RestModule</text>
</g>
<!-- RestModule&#45;&gt;HcsModule -->
<g id="edge2" class="edge">
<title>RestModule&#45;&gt;HcsModule</title>
<path fill="none" stroke="black" d="M200,-84.91C200,-84.91 200,-103.79 200,-103.79"/>
<polygon fill="black" stroke="black" points="196.5,-103.79 200,-113.79 203.5,-103.79 196.5,-103.79"/>
</g>
<!-- HcsService  -->
<g id="node4" class="node">
<title>HcsService </title>
<polygon fill="#fb8072" stroke="black" points="241.75,-214.8 158.25,-214.8 158.25,-178.8 241.75,-178.8 241.75,-214.8"/>
<text text-anchor="middle" x="200" y="-192.6" font-family="Times,serif" font-size="14.00">HcsService </text>
</g>
<!-- HcsModule&#45;&gt;HcsService  -->
<g id="edge3" class="edge">
<title>HcsModule&#45;&gt;HcsService </title>
<path fill="none" stroke="black" stroke-dasharray="5,2" d="M200,-149.91C200,-149.91 200,-168.79 200,-168.79"/>
<polygon fill="black" stroke="black" points="196.5,-168.79 200,-178.79 203.5,-168.79 196.5,-168.79"/>
</g>
<!-- HcsService -->
<g id="node5" class="node">
<title>HcsService</title>
<ellipse fill="#fdb462" stroke="black" cx="79" cy="-66.8" rx="55.02" ry="18"/>
<text text-anchor="middle" x="79" y="-62.6" font-family="Times,serif" font-size="14.00">HcsService</text>
</g>
<!-- HcsService&#45;&gt;HcsModule -->
<g id="edge4" class="edge">
<title>HcsService&#45;&gt;HcsModule</title>
<path fill="none" stroke="black" d="M79,-84.91C79,-104.14 79,-131.8 79,-131.8 79,-131.8 149.03,-131.8 149.03,-131.8"/>
<polygon fill="black" stroke="black" points="149.03,-135.3 159.03,-131.8 149.03,-128.3 149.03,-135.3"/>
</g>
<!-- KeysService  -->
<g id="node6" class="node">
<title>KeysService </title>
<polygon fill="#fb8072" stroke="black" points="499.25,-214.8 408.75,-214.8 408.75,-178.8 499.25,-178.8 499.25,-214.8"/>
<text text-anchor="middle" x="454" y="-192.6" font-family="Times,serif" font-size="14.00">KeysService </text>
</g>
<!-- KeysModule -->
<g id="node7" class="node">
<title>KeysModule</title>
<polygon fill="#8dd3c7" stroke="black" points="498.32,-149.8 495.32,-153.8 474.32,-153.8 471.32,-149.8 409.68,-149.8 409.68,-113.8 498.32,-113.8 498.32,-149.8"/>
<text text-anchor="middle" x="454" y="-127.6" font-family="Times,serif" font-size="14.00">KeysModule</text>
</g>
<!-- KeysModule&#45;&gt;KeysService  -->
<g id="edge5" class="edge">
<title>KeysModule&#45;&gt;KeysService </title>
<path fill="none" stroke="black" stroke-dasharray="5,2" d="M454,-149.91C454,-149.91 454,-168.79 454,-168.79"/>
<polygon fill="black" stroke="black" points="450.5,-168.79 454,-178.79 457.5,-168.79 450.5,-168.79"/>
</g>
<!-- KeysService -->
<g id="node8" class="node">
<title>KeysService</title>
<ellipse fill="#fdb462" stroke="black" cx="454" cy="-66.8" rx="59.68" ry="18"/>
<text text-anchor="middle" x="454" y="-62.6" font-family="Times,serif" font-size="14.00">KeysService</text>
</g>
<!-- KeysService&#45;&gt;KeysModule -->
<g id="edge6" class="edge">
<title>KeysService&#45;&gt;KeysModule</title>
<path fill="none" stroke="black" d="M454,-84.91C454,-84.91 454,-103.79 454,-103.79"/>
<polygon fill="black" stroke="black" points="450.5,-103.79 454,-113.79 457.5,-103.79 450.5,-103.79"/>
</g>
</g>
</svg>
